{
  "accessors": [
    {
      "bufferView": 2,
      "componentType": 5126,
      "count": 65532,
      "max": [
        80.99559020996094,
        -62.11929702758789,
        99.05857849121094
      ],
      "min": [
        -83.9804916381836,
        -337.3219299316406,
        -88.17593383789063
      ],
      "type": "VEC3"
    },
    {
      "bufferView": 2,
      "byteOffset": 786384,
      "componentType": 5126,
      "count": 65532,
      "max": [
        0.9999998807907104,
        0.999998927116394,
        0.9999884366989136
      ],
      "min": [
        -0.9995590448379517,
        -0.9999701976776123,
        -0.9999997615814209
      ],
      "type": "VEC3"
    },
    {
      "bufferView": 1,
      "componentType": 5126,
      "count": 65532,
      "max": [
        0.9916980266571045,
        0.6885049939155579
      ],
      "min": [
        0.01413699984550476,
        0.0008549999911338091
      ],
      "type": "VEC2"
    },
    {
      "bufferView": 0,
      "componentType": 5125,
      "count": 363237,
      "type": "SCALAR"
    },
    {
      "bufferView": 2,
      "byteOffset": 1572768,
      "componentType": 5126,
      "count": 65532,
      "max": [
        87.45026397705078,
        -22.748014450073242,
        81.33170318603516
      ],
      "min": [
        -94.94418334960938,
        -307.4015197753906,
        -96.13402557373047
      ],
      "type": "VEC3"
    },
    {
      "bufferView": 2,
      "byteOffset": 2359152,
      "componentType": 5126,
      "count": 65532,
      "max": [
        0.9824350476264954,
        0.991506814956665,
        0.9414668083190918
      ],
      "min": [
        -0.9999967217445374,
        -0.9991998076438904,
        -0.9999839663505554
      ],
      "type": "VEC3"
    },
    {
      "bufferView": 1,
      "byteOffset": 524256,
      "componentType": 5126,
      "count": 65532,
      "max": [
        0.8901690244674683,
        0.9992560148239136
      ],
      "min": [
        0.16167399287223816,
        0.46892300248146057
      ],
      "type": "VEC2"
    },
    {
      "bufferView": 0,
      "byteOffset": 1452948,
      "componentType": 5125,
      "count": 364578,
      "type": "SCALAR"
    },
    {
      "bufferView": 2,
      "byteOffset": 3145536,
      "componentType": 5126,
      "count": 65532,
      "max": [
        100.20330047607422,
        0.3445099890232086,
        98.75653076171875
      ],
      "min": [
        -92.67163848876953,
        -236.35662841796875,
        -84.01236724853516
      ],
      "type": "VEC3"
    },
    {
      "bufferView": 2,
      "byteOffset": 3931920,
      "componentType": 5126,
      "count": 65532,
      "max": [
        0.9999881386756897,
        0.9999993443489075,
        0.9994258284568787
      ],
      "min": [
        -0.9830682873725891,
        -0.904056966304779,
        -0.9985821843147278
      ],
      "type": "VEC3"
    },
    {
      "bufferView": 1,
      "byteOffset": 1048512,
      "componentType": 5126,
      "count": 65532,
      "max": [
        0.683131992816925,
        0.9992560148239136
      ],
      "min": [
        0.0007440000190399587,
        0.06172199919819832
      ],
      "type": "VEC2"
    },
    {
      "bufferView": 0,
      "byteOffset": 2911260,
      "componentType": 5125,
      "count": 356451,
      "type": "SCALAR"
    },
    {
      "bufferView": 2,
      "byteOffset": 4718304,
      "componentType": 5126,
      "count": 65532,
      "max": [
        65.93909454345703,
        0.5075700283050537,
        72.17363739013672
      ],
      "min": [
        -94.88860321044922,
        -334.6959533691406,
        -61.150543212890625
      ],
      "type": "VEC3"
    },
    {
      "bufferView": 2,
      "byteOffset": 5504688,
      "componentType": 5126,
      "count": 65532,
      "max": [
        0.9998244643211365,
        0.9999995827674866,
        0.9994621276855469
      ],
      "min": [
        -0.9999929070472717,
        -0.9999959468841553,
        -0.9999343156814575
      ],
      "type": "VEC3"
    },
    {
      "bufferView": 1,
      "byteOffset": 1572768,
      "componentType": 5126,
      "count": 65532,
      "max": [
        0.869005024433136,
        0.872767984867096
      ],
      "min": [
        0.024445999413728714,
        0.05344200134277344
      ],
      "type": "VEC2"
    },
    {
      "bufferView": 0,
      "byteOffset": 4337064,
      "componentType": 5125,
      "count": 377238,
      "type": "SCALAR"
    },
    {
      "bufferView": 2,
      "byteOffset": 6291072,
      "componentType": 5126,
      "count": 51799,
      "max": [
        79.7061538696289,
        -199.33860778808594,
        73.97504425048828
      ],
      "min": [
        -74.64308166503906,
        -338.2556457519531,
        -66.73534393310547
      ],
      "type": "VEC3"
    },
    {
      "bufferView": 2,
      "byteOffset": 6912660,
      "componentType": 5126,
      "count": 51799,
      "max": [
        0.9999227523803711,
        0.999995768070221,
        0.9999746680259705
      ],
      "min": [
        -0.9999798536300659,
        -0.9999822378158569,
        -0.9999892711639404
      ],
      "type": "VEC3"
    },
    {
      "bufferView": 1,
      "byteOffset": 2097024,
      "componentType": 5126,
      "count": 51799,
      "max": [
        0.87322598695755,
        0.6577379703521729
      ],
      "min": [
        0.012648999691009521,
        0.039854999631643295
      ],
      "type": "VEC2"
    },
    {
      "bufferView": 0,
      "byteOffset": 5846016,
      "componentType": 5125,
      "count": 290946,
      "type": "SCALAR"
    }
  ],
  "asset": {
    "extras": {
      "author": "The National Museum of Antiquities (https://sketchfab.com/rmo_leiden)",
      "license": "CC0-1.0 (http://creativecommons.org/publicdomain/zero/1.0/)",
      "source": "https://sketchfab.com/3d-models/eros-pelike-3b81be98b310473f952931088a7b1930",
      "title": "Eros pelike"
    },
    "generator": "Sketchfab-15.14.0",
    "version": "2.0"
  },
  "bufferViews": [
    {
      "buffer": 0,
      "byteLength": 7009800,
      "name": "floatBufferViews",
      "target": 34963
    },
    {
      "buffer": 0,
      "byteLength": 2511416,
      "byteOffset": 7009800,
      "byteStride": 8,
      "name": "floatBufferViews",
      "target": 34962
    },
    {
      "buffer": 0,
      "byteLength": 7534248,
      "byteOffset": 9521216,
      "byteStride": 12,
      "name": "floatBufferViews",
      "target": 34962
    }
  ],
  "buffers": [
    {
      "byteLength": 17055464,
      "uri": "gltf.bin"
    }
  ],
  "extensionsUsed": [
    "KHR_materials_specular"
  ],
  "images": [
    {
      "uri": "textures/material_0_baseColor.png"
    }
  ],
  "materials": [
    {
      "doubleSided": true,
      "extensions": {
        "KHR_materials_specular": {
          "specularColorFactor": [
            1.0,
            1.0,
            1.0
          ],
          "specularFactor": 0.0
        }
      },
      "name": "material_0",
      "pbrMetallicRoughness": {
        "baseColorTexture": {
          "index": 0
        },
        "metallicFactor": 0.0,
        "roughnessFactor": 0.06251178033550396
      }
    }
  ],
  "meshes": [
    {
      "name": "Object_0",
      "primitives": [
        {
          "attributes": {
            "NORMAL": 1,
            "POSITION": 0,
            "TEXCOORD_0": 2
          },
          "indices": 3,
          "material": 0,
          "mode": 4
        }
      ]
    },
    {
      "name": "Object_1",
      "primitives": [
        {
          "attributes": {
            "NORMAL": 5,
            "POSITION": 4,
            "TEXCOORD_0": 6
          },
          "indices": 7,
          "material": 0,
          "mode": 4
        }
      ]
    },
    {
      "name": "Object_2",
      "primitives": [
        {
          "attributes": {
            "NORMAL": 9,
            "POSITION": 8,
            "TEXCOORD_0": 10
          },
          "indices": 11,
          "material": 0,
          "mode": 4
        }
      ]
    },
    {
      "name": "Object_3",
      "primitives": [
        {
          "attributes": {
            "NORMAL": 13,
            "POSITION": 12,
            "TEXCOORD_0": 14
          },
          "indices": 15,
          "material": 0,
          "mode": 4
        }
      ]
    },
    {
      "name": "Object_4",
      "primitives": [
        {
          "attributes": {
            "NORMAL": 17,
            "POSITION": 16,
            "TEXCOORD_0": 18
          },
          "indices": 19,
          "material": 0,
          "mode": 4
        }
      ]
    }
  ],
  "nodes": [
    {
      "children": [
        1
      ],
      "matrix": [
        1.0,
        0.0,
        0.0,
        0.0,
        0.0,
        -1.0,
        -4.440892098500626e-16,
        0.0,
        0.0,
        4.440892098500626e-16,
        -1.0,
        0.0,
        0.0,
        0.0,
        0.0,
        1.0
      ],
      "name": "Sketchfab_model"
    },
    {
      "children": [
        2,
        3,
        4,
        5,
        6
      ],
      "name": "Greek vase I_1992_6-116.obj.cleaner.materialmerger.gles"
    },
    {
      "mesh": 0,
      "name": "Object_2"
    },
    {
      "mesh": 1,
      "name": "Object_3"
    },
    {
      "mesh": 2,
      "name": "Object_4"
    },
    {
      "mesh": 3,
      "name": "Object_5"
    },
    {
      "mesh": 4,
      "name": "Object_6"
    }
  ],
  "samplers": [
    {
      "magFilter": 9729,
      "minFilter": 9987,
      "wrapS": 10497,
      "wrapT": 10497
    }
  ],
  "scene": 0,
  "scenes": [
    {
      "name": "Sketchfab_Scene",
      "nodes": [
        0
      ]
    }
  ],
  "textures": [
    {
      "sampler": 0,
      "source": 0
    }
  ]
}
